<?xml version="1.0" encoding="UTF-8"?>
<svg id="Layer_2" data-name="Layer 2" xmlns="http://www.w3.org/2000/svg" viewBox="0 0 89.36 106.15">
  <defs>
    <style>
      .cls-1 {
        fill: #f8bc16;
      }

      .cls-1, .cls-2, .cls-3 {
        stroke-width: 0px;
      }

      .cls-2 {
        fill: #ac1f24;
      }

      .cls-3 {
        fill: #202934;
      }

      .cls-4 {
        fill: none;
        stroke: #202934;
        stroke-miterlimit: 10;
        stroke-width: 5px;
      }
    </style>
  </defs>
  <g id="Layer_1-2" data-name="Layer 1">
    <circle class="cls-4" cx="46.21" cy="49.93" r="12.08"/>
    <path class="cls-3" d="M43.07,63.53v39.49c0,1.73,1.41,3.14,3.14,3.14h0c1.73,0,3.14-1.41,3.14-3.14v-39.49c0-4.04-6.28-4.05-6.28,0Z"/>
    <path class="cls-1" d="M82.36,38.91s.01.1.02.15c.02.15.03.19-.02-.15Z"/>
    <path class="cls-1" d="M74.49,18.1s.02.02.03.03c.16.19-.3-.39-.03-.03Z"/>
    <path class="cls-1" d="M89.31,47.96c-.24-13.66-3.39-28.72-14.03-38.2C67.29,2.62,54.37.04,43.86,0c-.13,0-.24.02-.35.03,3.58.34,3.59,5.88,0,6.25.12.01.23.04.35.04,8.44.03,18.83,1.69,25.54,6.72.5.37.17.13.07.05.19.15.38.31.57.47.34.28.67.57.99.87.64.58,1.26,1.19,1.85,1.83.55.59,1.07,1.2,1.58,1.83.03.03.04.05.05.06,0-.01-.02-.02-.03-.03-.27-.36.19.23.03.03.13.18.26.35.39.53.25.34.49.69.72,1.03.93,1.39,1.76,2.84,2.49,4.34.83,1.69.98,2.05,1.63,3.91.68,1.93,1.26,3.9,1.69,5.9.33,1.53.62,3.06.84,4.6.02.13.06.44.08.6,0-.05-.01-.1-.02-.15.04.34.04.3.02.15.09.71.17,1.43.24,2.15.14,1.47.24,2.95.31,4.42.11,2.57.11,5.14.02,7.71-.09,2.57-.09,5.16-.81,7.59-.59,1.97-1.77,4.01-3,5.43-.71.82-1.49,1.58-2.31,2.29-.7.61-.97.82-1.98,1.49-1.28.85-2.62,1.6-4.02,2.24-.07.03-.36.16-.53.23-.07.03-.13.05-.16.06-.18.07-.35.13-.53.19-1.32.43-2.23,1.65-2.29,3.03-.35,7.46-.5,15.51.85,23.08.74,4.14,4.33,7.17,8.54,7.17h0c-.23-.53-.45-1.05-.64-1.59-3.13-8.45-2.93-17.56-2.52-26.45,5.15-2.22,9.89-6.1,12.69-10.87,3.35-5.71,3.21-12.84,3.1-19.29Z"/>
    <path class="cls-2" d="M6.98,39.06s.01-.1.02-.15c-.04.34-.04.3-.02.15Z"/>
    <path class="cls-2" d="M14.85,18.14s.02-.02.03-.03c.27-.36-.19.23-.03.03Z"/>
    <path class="cls-2" d="M43.51.03c-.12-.01-.23-.03-.35-.03-10.51.04-21.09,2.62-29.08,9.75C3.44,19.24.29,34.3.04,47.96c-.11,6.45-.25,13.58,3.1,19.29,2.8,4.77,7.54,8.65,12.69,10.87.4,8.89.6,18-2.52,26.45-.2.53-.42,1.06-.64,1.59,4.21,0,7.8-3.02,8.54-7.17,1.34-7.57,1.19-15.62.85-23.08-.06-1.39-.97-2.6-2.29-3.04-.18-.06-.36-.13-.53-.19-.03-.01-.09-.04-.16-.06-.16-.07-.45-.19-.53-.23-1.4-.64-2.74-1.39-4.02-2.24-1.01-.67-1.28-.89-1.98-1.49-.82-.71-1.6-1.47-2.31-2.29-1.23-1.42-2.42-3.47-3-5.43-.72-2.43-.73-5.03-.81-7.59-.09-2.57-.09-5.14.02-7.71.06-1.48.16-2.95.31-4.42.07-.72.15-1.43.24-2.15-.02.15-.03.19.02-.15,0,.05-.01.1-.02.15.02-.17.06-.47.08-.6.31-2.07.71-4.12,1.2-6.16.33-1.35.75-2.67,1.21-3.98.77-2.19.88-2.49,1.76-4.28.74-1.5,1.56-2.95,2.49-4.34.23-.35.47-.69.72-1.03.13-.18.26-.35.39-.53-.16.19.3-.39.03-.03,0,.01-.02.02-.03.03.01-.02.03-.03.05-.06.51-.63,1.03-1.24,1.58-1.83.59-.63,1.21-1.24,1.85-1.83.32-.3.66-.58.99-.87.19-.16.38-.31.57-.47-.1.08-.43.32.07-.05,6.72-5.03,14.75-6.69,23.2-6.72.13,0,.24-.02.35-.04-3.59-.37-3.58-5.91,0-6.25Z"/>
    <path class="cls-2" d="M43.51,6.28c3.59-.37,3.58-5.91,0-6.25-3.58.34-3.59,5.88,0,6.25Z"/>
  </g>
</svg>